<?xml version="1.0" encoding="utf-8"?>
<!-- Generator: Adobe Illustrator 21.1.0, SVG Export Plug-In . SVG Version: 6.00 Build 0)  -->
<svg version="1.1" id="Layer_1" xmlns="http://www.w3.org/2000/svg" xmlns:xlink="http://www.w3.org/1999/xlink" x="0px" y="0px"
	 viewBox="0 0 232.8 250" style="enable-background:new 0 0 232.8 250;" xml:space="preserve">
<style type="text/css">
	.st0{fill:url(#SVGID_1_);}
	.st1{opacity:0.2;}
	.st2{fill:#FFFFFF;}
</style>
<g>
	<linearGradient id="SVGID_1_" gradientUnits="userSpaceOnUse" x1="7.3572" y1="-6.2502" x2="238.6906" y2="238.4164">
		<stop  offset="0" style="stop-color:#FF5555"/>
		<stop  offset="1" style="stop-color:#CC003F"/>
	</linearGradient>
	<polygon class="st0" points="116.4,0 116.4,0 116.4,0 0,41.5 17.7,195.4 116.4,250 116.4,250 116.4,250 215,195.4 232.8,41.5 	"/>
	<polygon class="st1" points="116.4,0 116.4,27.8 116.4,27.6 116.4,154.3 116.4,154.3 116.4,250 116.4,250 215,195.4 232.8,41.5 	
		"/>
	<path class="st2" d="M116.4,27.6L43.6,190.8l0,0h27.1l0,0l14.6-36.5h61.8l14.6,36.5l0,0h27.1l0,0L116.4,27.6L116.4,27.6L116.4,27.6
		L116.4,27.6L116.4,27.6z M137.6,131.8H95.1l21.3-51.1L137.6,131.8z"/>
</g>
</svg>
