<?xml version="1.0" encoding="utf-8"?>
<!-- Generator: Adobe Illustrator 21.1.0, SVG Export Plug-In . SVG Version: 6.00 Build 0)  -->
<svg version="1.1" id="Layer_1" xmlns="http://www.w3.org/2000/svg" xmlns:xlink="http://www.w3.org/1999/xlink" x="0px" y="0px"
	 viewBox="0 0 150.9 76.7" style="enable-background:new 0 0 150.9 76.7;" xml:space="preserve">
<style type="text/css">
	.st0{fill:url(#SVGID_1_);}
</style>
<linearGradient id="SVGID_1_" gradientUnits="userSpaceOnUse" x1="-0.2663" y1="0.9907" x2="150.2337" y2="75.9907">
	<stop  offset="0" style="stop-color:#58EDDB"/>
	<stop  offset="1" style="stop-color:#24B2A1"/>
</linearGradient>
<path class="st0" d="M150.5,29.1c-1.3-9.6-6.2-16.9-14.1-22.3c-8.7-5.9-18.3-6.9-28.5-5.1C96,3.8,87.2,8.8,79.9,18.4
	c-3.1,4.1-5.5,8.4-6.9,13H40.8c-1.5,0-2.2,1-2.5,1.6c-1.4,2.6-3.8,7.8-5.1,10.9c-0.7,1.7-0.2,3,1.9,3h19.3c-1,1.4-1.8,2.6-2.7,3.7
	c-4.5,5.1-10.2,7.5-17,6.6c-7.9-1.1-13.4-7.7-13.5-15.7c-0.1-8.1,3.4-14.6,10.2-19c5.7-3.7,11.8-4.6,18.1-1.5c2.1,1,3.2,2.1,4.7,3.8
	c1.3,1.5,1.4,1.4,2.9,1c6.2-1.6,10.5-2.8,16.8-4.4c1.2-0.3,1.6-0.8,1-1.7c-2.5-5.8-6.3-10.6-11.6-14.1C55.2,0.1,46.2-1,36.8,0.7
	c-11.5,2.1-20.9,8-28,17.3C2.2,26.6-1,36.4,0.3,47.3C1.4,56.5,5.6,63.9,13,69.5c8,6,17.1,7.9,26.9,6.6c11.9-1.6,21.3-7.5,28.5-17
	c1.6-2.2,3-4.4,4.2-6.8c1.7,6.1,5.1,11.3,10,15.6c7,6,15.3,8.6,24.4,8.8c2.6-0.3,5.3-0.4,8-0.9c9.3-1.9,17.4-6.1,24-12.8
	C148.3,53.6,152.2,42.6,150.5,29.1z M118.1,55.4c-5.3,2.7-10.8,3-16.3,0.6c-7.2-3.2-11-11.1-9.2-18.9c2.2-9.4,8.2-15.3,17.5-17.4
	c9.5-2.2,18.6,3.4,20.4,13.3c0.2,1,0.2,2,0.3,3.3C130.3,44.9,126,51.3,118.1,55.4z"/>
</svg>
