<?xml version="1.0" encoding="utf-8"?>
<!-- Generator: Adobe Illustrator 21.1.0, SVG Export Plug-In . SVG Version: 6.00 Build 0)  -->
<svg version="1.1" id="Calque_1" xmlns="http://www.w3.org/2000/svg" xmlns:xlink="http://www.w3.org/1999/xlink" x="0px" y="0px"
	 viewBox="0 0 356 400" style="enable-background:new 0 0 356 400;" xml:space="preserve">
<style type="text/css">
	.st0{fill:url(#SVGID_1_);}
</style>
<linearGradient id="SVGID_1_" gradientUnits="userSpaceOnUse" x1="0" y1="200" x2="355.9961" y2="200">
	<stop  offset="0" style="stop-color:#FF66D4"/>
	<stop  offset="1" style="stop-color:#D32290"/>
</linearGradient>
<path class="st0" d="M338.1,251.3c-3-1.7-6.2-3-9.4-3.7v-95c3.3-0.8,6.5-2,9.5-3.8c17.1-9.9,22.9-31.7,13.1-48.7
	c-9.9-17.1-31.7-22.9-48.7-13.1c-3.1,1.8-5.8,4-8.1,6.4l-82.3-47.5c1-3.2,1.5-6.6,1.5-10.2C213.6,15.9,197.7,0,178,0
	s-35.6,15.9-35.6,35.6c0,3.5,0.5,6.9,1.5,10.1L61.5,93.3c-2.3-2.4-5-4.6-8-6.4c-17.1-9.8-38.9-4-48.7,13.1
	c-9.8,17.1-4,38.9,13.1,48.7c3,1.8,6.2,3,9.5,3.8v95c-3.2,0.8-6.4,2-9.4,3.7C0.9,261.2-4.9,282.9,4.9,300v0
	c9.8,17.1,31.6,22.9,48.7,13.1c3-1.8,5.7-3.9,8-6.3l82.2,47.5c-0.9,3.2-1.5,6.6-1.5,10.1c0,19.7,15.9,35.6,35.6,35.6
	s35.6-16,35.6-35.6c0-3.9-0.6-7.7-1.8-11.2l81.8-47.2c2.5,2.8,5.4,5.2,8.8,7.2c17.1,9.8,38.9,4,48.7-13.1
	C361,282.9,355.2,261.2,338.1,251.3z M70.4,273.7c-0.8-3.2-2-6.4-3.7-9.4c-1.7-3-3.9-5.7-6.3-8L168.1,69.9c3.2,0.9,6.5,1.4,9.9,1.4
	c3.5,0,6.8-0.5,10-1.4l107.7,186.5c-2.4,2.3-4.5,5-6.3,8c-1.7,3-3,6.2-3.7,9.4H70.4z M286.1,108.1c-2.5,8.9-1.6,18.9,3.4,27.6
	c5,8.7,13.2,14.5,22.3,16.8v95.2c-0.5,0.1-0.9,0.2-1.4,0.4L202.6,61.4c0.3-0.3,0.6-0.6,1-0.9L286.1,108.1z M152.4,60.4
	c0.3,0.3,0.7,0.7,1,1L45.7,247.9c-0.5-0.1-0.9-0.3-1.4-0.4v-95.2c9.1-2.3,17.2-8,22.3-16.8c5-8.7,5.9-18.7,3.4-27.6L152.4,60.4z
	 M204.4,340.3c-6.5-7.2-15.9-11.6-26.4-11.6c-10.1,0-19.2,4.2-25.7,10.9L70,292.1c0.1-0.5,0.3-0.9,0.4-1.4h215.3
	c0.2,0.8,0.4,1.6,0.6,2.3L204.4,340.3z"/>
</svg>
