<?xml version="1.0" encoding="utf-8"?>
<!-- Generator: Adobe Illustrator 21.1.0, SVG Export Plug-In . SVG Version: 6.00 Build 0)  -->
<svg version="1.1" id="Calque_1" xmlns="http://www.w3.org/2000/svg" xmlns:xlink="http://www.w3.org/1999/xlink" x="0px" y="0px"
	 viewBox="0 0 72 72" style="enable-background:new 0 0 72 72;" xml:space="preserve">
<style type="text/css">
	.st0{fill:#FFFFFF;}
</style>
<g>
	<path class="st0" d="M72,72H57.2V46.8c0-6.9-2.6-10.8-8.1-10.8c-5.9,0-9.1,4-9.1,10.8V72H25.8V24h14.3v6.5c0,0,4.3-7.9,14.5-7.9
		c10.2,0,17.5,6.2,17.5,19.1V72z M8.8,17.7c-4.9,0-8.8-4-8.8-8.9S3.9,0,8.8,0s8.8,4,8.8,8.9S13.6,17.7,8.8,17.7z M1.4,72h14.9V24
		H1.4V72z"/>
</g>
</svg>
