<?xml version="1.0" encoding="utf-8"?>
<!-- Generator: Adobe Illustrator 21.1.0, SVG Export Plug-In . SVG Version: 6.00 Build 0)  -->
<svg version="1.1" id="Calque_1" xmlns="http://www.w3.org/2000/svg" xmlns:xlink="http://www.w3.org/1999/xlink" x="0px" y="0px"
	 viewBox="0 0 911.9 2038.1" style="enable-background:new 0 0 911.9 2038.1;" xml:space="preserve">
<style type="text/css">
	.st0{fill:url(#SVGID_1_);}
	.st1{fill:url(#SVGID_2_);}
	.st2{fill:#C2BFBF;}
</style>
<linearGradient id="SVGID_1_" gradientUnits="userSpaceOnUse" x1="-250.1517" y1="-43.048" x2="933.8483" y2="1452.9519">
	<stop  offset="0" style="stop-color:#91DB61"/>
	<stop  offset="1" style="stop-color:#5AA529"/>
</linearGradient>
<path class="st0" d="M449.6,5.5l54.2,101.8c12.2,18.8,25.4,35.4,40.9,50.9c45.6,45,88,93,127.1,143.8
	c91.8,120.5,153.7,254.4,197.9,399.2c26.5,88.4,40.9,179.2,42,270.9c4.4,274.3-89.6,509.8-279.1,705.5c-30.8,31-64.1,59.5-99.6,85.1
	c-18.8,0-27.7-14.4-35.4-27.7c-14.1-24.6-23.5-51.6-27.7-79.6c-6.7-33.2-11-66.4-8.9-100.6v-15.5C459.6,1536,443,13.3,449.6,5.5z"/>
<linearGradient id="SVGID_2_" gradientUnits="userSpaceOnUse" x1="-257.6263" y1="398.3449" x2="1238.3737" y2="1466.3448">
	<stop  offset="0" style="stop-color:#91DB61"/>
	<stop  offset="1" style="stop-color:#5AA529"/>
</linearGradient>
<path class="st1" d="M449.6,2.2c-2.2-4.4-4.4-1.1-6.7,1.1c1.1,22.2-6.7,42-18.8,60.9c-13.3,18.8-31,33.2-48.7,48.7
	c-98.3,85.1-175.7,188-237.7,303c-82.5,154.8-125,320.7-137,495.4c-5.5,63,19.9,285.3,39.8,349.4c54.2,170.3,151.5,313,277.6,436.8
	c31,29.8,64.1,57.5,98.3,84.1c10,0,11-8.9,13.3-15.5c4.4-14.1,7.7-28.5,10-43.1l22.2-165.8L449.6,2.2z"/>
<path class="st2" d="M503.8,1830c2.2-25.4,14.4-46.4,27.7-67.4c-13.3-5.5-23.2-16.5-31-28.7c-6.7-11.6-12.2-23.8-16.5-36.5
	c-15.5-46.4-18.8-95.2-23.2-142.6V1526c-5.5,4.4-6.7,42-6.7,47.6c-3.2,50.2-9.9,100-19.9,149.3c-3.3,19.9-5.5,39.8-17.8,57.5
	c0,2.2,0,4.4,1.1,7.7c19.9,58.6,25.4,118.3,28.7,179.2v22.2c0,26.5-1.1,20.9,20.9,29.8c8.9,3.3,18.8,4.4,27.7,11
	c6.7,0,7.7-5.5,7.7-10l-3.3-36.5v-101.8C498.2,1864.3,501.5,1846.7,503.8,1830L503.8,1830z"/>
</svg>
