<?xml version="1.0" encoding="utf-8"?>
<!-- Generator: Adobe Illustrator 21.1.0, SVG Export Plug-In . SVG Version: 6.00 Build 0)  -->
<svg version="1.1" id="Calque_1" xmlns="http://www.w3.org/2000/svg" xmlns:xlink="http://www.w3.org/1999/xlink" x="0px" y="0px"
	 viewBox="0 0 394 80" style="enable-background:new 0 0 394 80;" xml:space="preserve">
<style type="text/css">
	.st0{fill:url(#SVGID_1_);}
	.st1{fill:url(#SVGID_2_);}
	.st2{fill:url(#SVGID_3_);}
</style>
<linearGradient id="SVGID_1_" gradientUnits="userSpaceOnUse" x1="-0.6871" y1="85.4931" x2="397.8129" y2="1.9931" gradientTransform="matrix(1 0 0 -1 0 82)">
	<stop  offset="0" style="stop-color:#FFFFFF"/>
	<stop  offset="1" style="stop-color:#DDDFED"/>
</linearGradient>
<path class="st0" d="M261.9,0h68.6v12.7h-27.2v66.6h-13.6V12.7h-27.8V0z M149.1,0v12.7H94v20.4h44.2v12.7H94v20.9h55v12.7H80.4V12.7
	l0,0V0H149.1z M183.3,0.1h-17.8l63.8,79.3h17.9l-31.9-39.6l31.9-39.6h-17.8l-23,28.5L183.3,0.1z M201.6,56.7l-8.9-11.1l-27.2,33.8
	h17.9C183.3,79.4,201.6,56.7,201.6,56.7z"/>
<linearGradient id="SVGID_2_" gradientUnits="userSpaceOnUse" x1="-8.9605" y1="46.0086" x2="389.5395" y2="-37.4914" gradientTransform="matrix(1 0 0 -1 0 82)">
	<stop  offset="0" style="stop-color:#FFFFFF"/>
	<stop  offset="1" style="stop-color:#DDDFED"/>
</linearGradient>
<path class="st1" d="M80.9,79.3L17,0H0v79.3h13.6V17l50.2,62.4C63.8,79.3,80.9,79.3,80.9,79.3z"/>
<linearGradient id="SVGID_3_" gradientUnits="userSpaceOnUse" x1="1.2727" y1="94.8462" x2="399.7727" y2="11.3462" gradientTransform="matrix(1 0 0 -1 0 82)">
	<stop  offset="0" style="stop-color:#FFFFFF"/>
	<stop  offset="1" style="stop-color:#DDDFED"/>
</linearGradient>
<path class="st2" d="M333.6,78.9c-1,0-1.9-0.4-2.6-1c-0.7-0.7-1.1-1.5-1.1-2.5s0.3-1.8,1.1-2.5c0.7-0.7,1.6-1.1,2.6-1
	c1,0,1.8,0.3,2.5,1s1.1,1.5,1.1,2.5c0,0.6-0.2,1.3-0.5,1.8s-0.8,1-1.3,1.3C334.8,78.7,334.2,78.9,333.6,78.9z M356.8,45.4h6v23.2
	c0,2.1-0.5,4-1.4,5.5s-2.2,2.7-3.8,3.5c-1.6,0.8-3.5,1.2-5.7,1.2c-2,0-3.7-0.4-5.3-1c-1.6-0.7-2.8-1.7-3.7-3.1
	c-0.9-1.4-1.4-3.1-1.4-5.1h6c0,0.9,0.2,1.7,0.6,2.3c0.4,0.6,0.9,1.2,1.6,1.5s1.5,0.5,2.4,0.5c1,0,1.8-0.2,2.5-0.6s1.2-1,1.5-1.8
	c0.4-0.8,0.5-1.8,0.5-2.9V45.4H356.8z M387.7,54.5c-0.1-1.4-0.8-2.5-1.9-3.3s-2.6-1.2-4.4-1.2c-1.3,0-2.4,0.2-3.3,0.6
	c-0.9,0.4-1.6,0.9-2.1,1.5s-0.7,1.4-0.7,2.2c0,0.7,0.2,1.3,0.5,1.8s0.8,1,1.3,1.3c0.6,0.4,1.2,0.7,1.8,0.9c0.7,0.2,1.4,0.4,2,0.6
	l3.1,0.8c1.3,0.3,2.5,0.7,3.7,1.2c1.1,0.5,2.2,1.1,3.2,1.9c0.9,0.7,1.7,1.7,2.2,2.7c0.5,1.1,0.8,2.3,0.8,3.7c0,1.9-0.5,3.6-1.5,5.1
	s-2.5,2.6-4.4,3.4s-4.2,1.2-6.9,1.2c-2.6,0-4.9-0.4-6.8-1.2c-1.9-0.8-3.4-2-4.5-3.5s-1.7-3.4-1.7-5.6h6c0.1,1.1,0.5,2.1,1.1,2.9
	s1.5,1.3,2.5,1.7c1,0.4,2.2,0.6,3.4,0.6c1.3,0,2.5-0.2,3.5-0.6s1.8-0.9,2.3-1.6c0.6-0.7,0.9-1.5,0.9-2.5c0-0.9-0.3-1.6-0.8-2.1
	c-0.5-0.6-1.2-1-2.1-1.4c-1-0.4-2.1-0.8-3.2-1l-3.8-1c-2.8-0.7-4.9-1.8-6.5-3.2s-2.4-3.3-2.4-5.7c0-1.9,0.5-3.7,1.6-5.1
	c1.1-1.5,2.5-2.6,4.4-3.4c1.9-0.8,4-1.2,6.3-1.2c2.4,0,4.5,0.4,6.3,1.2s3.2,1.9,4.2,3.4c1,1.4,1.6,3.1,1.6,4.9H387.7L387.7,54.5z"/>
</svg>
