<?xml version="1.0" encoding="utf-8"?>
<!-- Generator: Adobe Illustrator 21.1.0, SVG Export Plug-In . SVG Version: 6.00 Build 0)  -->
<svg version="1.0" id="Calque_1" xmlns="http://www.w3.org/2000/svg" xmlns:xlink="http://www.w3.org/1999/xlink" x="0px" y="0px"
	 viewBox="0 0 84.5 24.2" style="enable-background:new 0 0 84.5 24.2;" xml:space="preserve">
<style type="text/css">
	.st0{fill:url(#SVGID_1_);}
	.st1{fill:url(#SVGID_2_);}
	.st2{fill:url(#SVGID_3_);}
	.st3{fill:url(#SVGID_4_);}
	.st4{fill:url(#SVGID_5_);}
	.st5{fill:url(#SVGID_6_);}
</style>
<g>
	<linearGradient id="SVGID_1_" gradientUnits="userSpaceOnUse" x1="-1.2635" y1="10.0969" x2="83.4865" y2="26.7219">
		<stop  offset="1.780192e-07" style="stop-color:#21EA72"/>
		<stop  offset="1" style="stop-color:#00BF52"/>
	</linearGradient>
	<path class="st0" d="M15.8,3.2c-1,0-1.8,0.8-1.8,1.8v9.6L3.1,3.8c-0.5-0.5-1.3-0.7-2-0.4C0.4,3.7,0,4.3,0,5.1v14
		c0,1,0.8,1.8,1.8,1.8s1.8-0.8,1.8-1.8V9.5l10.9,10.9c0.4,0.4,0.8,0.5,1.3,0.5c0.2,0,0.5,0,0.7-0.1c0.7-0.3,1.1-1,1.1-1.7v-14
		C17.7,4.1,16.8,3.2,15.8,3.2z"/>
	<linearGradient id="SVGID_2_" gradientUnits="userSpaceOnUse" x1="1.0109" y1="-1.4978" x2="85.7609" y2="15.1272">
		<stop  offset="1.780192e-07" style="stop-color:#21EA72"/>
		<stop  offset="1" style="stop-color:#00BF52"/>
	</linearGradient>
	<path class="st1" d="M42.9,3.2L42.9,3.2c-1,0-1.8,0.9-1.8,1.9v4.8h3.7V5.1C44.8,4.1,43.9,3.2,42.9,3.2z"/>
	<linearGradient id="SVGID_3_" gradientUnits="userSpaceOnUse" x1="-0.4913" y1="6.1601" x2="84.2587" y2="22.7851">
		<stop  offset="1.780192e-07" style="stop-color:#21EA72"/>
		<stop  offset="1" style="stop-color:#00BF52"/>
	</linearGradient>
	<path class="st2" d="M28.9,11.3c-1,0-1.9,0.9-1.9,1.8s0.9,1.8,1.9,1.8l4.5,0l-1.1,2.2h-5.8l-2.9-5l2.9-5.2h6.1l1.4,2.9h3.7
		l-2.3-5.6l-0.5-1h-9.5l-1.1,0l-0.5,0.9l-3.9,7.1l-0.5,0.9l0.5,0.9l3.9,6.9l0.5,0.9h10.2l0.5-1L38,14l1.3-2.7h-3L28.9,11.3z"/>
	<linearGradient id="SVGID_4_" gradientUnits="userSpaceOnUse" x1="0.4698" y1="1.261" x2="85.2198" y2="17.886">
		<stop  offset="1.780192e-07" style="stop-color:#21EA72"/>
		<stop  offset="1" style="stop-color:#00BF52"/>
	</linearGradient>
	<path class="st3" d="M63.5,3.4c-0.7-0.3-1.5-0.1-2,0.4L50.6,14.7V5.1c0-1-0.8-1.8-1.8-1.8S47,4.1,47,5.1v14c0,0.7,0.4,1.4,1.1,1.7
		c0.2,0.1,0.5,0.1,0.7,0.1c0.5,0,0.9-0.2,1.3-0.5L60.9,9.5v9.6c0,1,0.8,1.8,1.8,1.8s1.8-0.8,1.8-1.8v-14C64.6,4.4,64.2,3.7,63.5,3.4
		z"/>
	<linearGradient id="SVGID_5_" gradientUnits="userSpaceOnUse" x1="1.2088" y1="-2.5066" x2="85.9588" y2="14.1184">
		<stop  offset="1.780192e-07" style="stop-color:#21EA72"/>
		<stop  offset="1" style="stop-color:#00BF52"/>
	</linearGradient>
	<path class="st4" d="M78.2,12.1l5.7-5.7c0.7-0.7,0.7-1.9,0-2.6c-0.7-0.7-1.9-0.7-2.6,0l-5.7,5.7l-5.7-5.7c-0.7-0.7-1.9-0.7-2.6,0
		c-0.7,0.7-0.7,1.9,0,2.6l5.7,5.7l-5.7,5.7c-0.7,0.7-0.7,1.9,0,2.6c0.4,0.4,0.8,0.5,1.3,0.5c0.5,0,0.9-0.2,1.3-0.5l5.7-5.7l5.7,5.7
		c0.4,0.4,0.8,0.5,1.3,0.5c0.5,0,0.9-0.2,1.3-0.5c0.7-0.7,0.7-1.9,0-2.6L78.2,12.1z"/>
	<linearGradient id="SVGID_6_" gradientUnits="userSpaceOnUse" x1="-0.7328" y1="7.3914" x2="84.0172" y2="24.0164">
		<stop  offset="1.780192e-07" style="stop-color:#21EA72"/>
		<stop  offset="1" style="stop-color:#00BF52"/>
	</linearGradient>
	<path class="st5" d="M41.1,19c0,1,0.9,1.8,1.8,1.9c1,0,1.9-0.9,1.9-1.9v-7.7h-3.7V19z"/>
</g>
</svg>
