<?xml version="1.0" encoding="utf-8"?>
<!-- Generator: Adobe Illustrator 21.1.0, SVG Export Plug-In . SVG Version: 6.00 Build 0)  -->
<svg version="1.1" id="Calque_1" xmlns="http://www.w3.org/2000/svg" xmlns:xlink="http://www.w3.org/1999/xlink" x="0px" y="0px"
	 viewBox="0 0 432.1 445.4" style="enable-background:new 0 0 432.1 445.4;" xml:space="preserve">
<style type="text/css">
	.st0{fill:url(#SVGID_1_);}
	.st1{fill:#FFFFFF;}
</style>
<g id="Layer_x0020_3">
	<linearGradient id="SVGID_1_" gradientUnits="userSpaceOnUse" x1="33.1722" y1="-30.2827" x2="461.1721" y2="410.7173">
		<stop  offset="0" style="stop-color:#2190B7"/>
		<stop  offset="1" style="stop-color:#1F5591"/>
	</linearGradient>
	<path class="st0" d="M402,273.9c-50.3,10.4-53.8-6.7-53.8-6.7c53.1-78.8,75.3-178.8,56.2-203.3C352.2-2.8,261.7,28.7,260.2,29.6
		l-0.5,0.1c-9.9-2.1-21.1-3.3-33.6-3.5c-22.8-0.4-40,6-53.1,15.9c0,0-161.4-66.5-153.9,83.6c1.6,31.9,45.8,241.7,98.5,178.3
		c19.3-23.2,37.9-42.7,37.9-42.7c9.2,6.1,20.3,9.3,31.9,8.1l0.9-0.8c-0.3,2.9-0.2,5.7,0.4,9c-13.6,15.2-9.6,17.8-36.7,23.4
		c-27.5,5.7-11.3,15.7-0.8,18.4c12.8,3.2,42.3,7.7,62.3-20.2l-0.8,3.2c5.3,4.3,9.1,27.7,8.4,49c-0.6,21.3-1,35.9,3.1,47.3
		c4.2,11.4,8.4,37,44,29.4c29.8-6.4,45.3-22.9,47.4-50.6c1.5-19.6,5-16.7,5.2-34.3l2.8-8.3c3.2-26.6,0.5-35.2,18.9-31.2l4.5,0.4
		c13.5,0.6,31.2-2.2,41.6-7C410.8,286.7,424.1,269.4,402,273.9L402,273.9z"/>
	<path class="st1" d="M258.6,436.5c-30.4,0-40.1-24.6-43.6-33.4c-5.7-14.1-7-67.4-5.6-114c0.1-3.4,3-6.1,6.4-6.1
		c3.4,0.1,6.2,3,6.1,6.4c-1.5,51.8,0.6,98.7,4.7,109c5.4,13.6,13.1,25.6,31.8,25.6c3.6,0,7.6-0.4,12-1.4
		c26.7-5.7,36.1-15.3,40.6-41.1c3.5-20.1,10.1-76.1,10.9-86.7c0.3-3.4,3.3-6,6.7-5.7c3.4,0.3,6,3.3,5.7,6.7
		c-0.9,11.1-7.4,67-11.1,87.9c-5.3,30.5-18.9,44.4-50.2,51.1C267.7,436,262.9,436.5,258.6,436.5z M97.3,321.4
		c-2.9,0-5.5-0.5-7.8-1.3c-19.5-6.5-38-38.1-55-93.8c-12.9-42.4-21.1-86.6-21.8-101c-2.1-42.7,8.9-73,32.8-89.9
		C92.6,2,171.8,33.8,175.2,35.2c3.2,1.3,4.7,4.9,3.4,8.1c-1.3,3.2-4.9,4.7-8.1,3.4c-0.9-0.4-76.4-30.5-117.9-1.1
		c-20.2,14.3-29.4,40.9-27.5,79.1c0.6,12.1,8.2,55.1,21.3,97.9c15.1,49.5,32.2,80.7,47,85.6c2.3,0.8,9.2,3.1,19.1-9
		c19.2-23.1,36.8-41.5,37-41.6c2.4-2.5,6.3-2.6,8.8-0.2c2.5,2.4,2.6,6.3,0.2,8.8c-0.2,0.2-17.5,18.2-36.4,41
		C113.1,318.2,104.4,321.4,97.3,321.4z M347.9,272.9c-1.2,0-2.4-0.3-3.5-1.1c-2.9-1.9-3.6-5.8-1.7-8.7
		c53.7-79.5,72.5-175.4,56.5-196c-20.2-25.8-48.7-39.3-84.7-40.1c-26.8-0.6-48,6.2-51.6,7.4c-0.3,0.2-0.7,0.3-1.1,0.4
		c-3.8,1.1-6.7-0.9-7.7-3.4c-1.3-2.9-0.2-6.3,2.5-7.9c2.4-1.4,27-9.4,56.3-9.1c40.2,0.5,73.5,16,96.1,44.9
		c15.3,19.6,5.2,67.1,0.2,86.7c-10.9,42-31.3,87.2-56.1,123.9C351.9,271.9,349.9,272.9,347.9,272.9z"/>
	<path class="st1" d="M350.7,309.8c-9.3,0-17.6-1.3-22.6-4.3c-5.2-3.2-6.2-7.5-6.3-9.8c-1.4-23.9,11.4-28.6,18.5-30.7
		c-0.9-1.3-2.1-2.8-3.4-4.4c-4-5-9.5-11.8-13.7-21.9c-0.6-1.6-2.7-5.3-5.1-9.6c-13-23.3-39.9-71.6-22.5-96.6
		c8-11.5,23.8-16.1,47.1-13.7c-3.1-9.2-10.8-26.2-25.2-43.1c-16.6-19.6-46.1-43.2-92-43.9c-23.3-0.4-42.4,6.8-56.8,21.2
		c-32.2,32.5-31.1,91.6-31.1,92.2c0.1,3.4-2.6,6.3-6.1,6.4c-3.4,0.1-6.3-2.6-6.4-6.1c-0.1-2.6-1.3-64.9,34.7-101.2
		c16.8-17,39-25.4,65.9-25c50.1,0.8,82.3,26.3,100.6,47.5c19.8,23.1,29.6,48.6,30.4,57.2c0.7,6.8-4.6,8.2-5.2,8.3l-2.3,0.1
		c-15.7-2.5-36-3.2-43.5,7.4c-13,18.5,12.4,64,23.2,83.4c2.8,5,4.8,8.6,5.7,10.9c3.5,8.5,8.1,14.3,11.8,18.9
		c3.3,4.2,6.2,7.8,7.3,12.1c0.6,0.9,7.5,10.3,46.6,2.3c10.2-2.1,16.4-0.3,18.3,5.5c3.7,11.2-16.7,24.2-28,29.4
		C380.7,306.9,364.6,309.8,350.7,309.8z M334.2,294.6c1.5,1.2,8,3.3,20.6,2.6c11.4-0.5,23.5-3,30.7-6.4c8.4-3.9,14.3-8.3,17.8-11.5
		c-0.1,0-0.2,0-0.3,0.1c-22.1,4.5-38.7,4.6-49.4,0.2c-2.6-1.1-4.7-2.4-6.3-3.6c-0.9,0.3-1.7,0.5-2.6,0.8
		C338.9,278.4,333.5,279.9,334.2,294.6z M334.3,295.1C334.3,295.1,334.3,295.1,334.3,295.1C334.3,295.1,334.3,295.1,334.3,295.1z
		 M341.8,268C341.8,268,341.8,268,341.8,268C341.8,268,341.8,268,341.8,268z"/>
	<path class="st1" d="M169.2,327.5c-6.3,0-13-0.9-19.9-2.6c-2-0.5-19.4-5.3-19.1-16.3c0.2-10.1,14.7-13.1,20.2-14.2
		c19.2-4,20.4-5.5,26.4-13.1c1.8-2.2,4-5,7-8.4c0,0,0,0,0,0c9.9-11.1,19.4-7.2,23.4-5.5c6.3,2.5,11.5,8.8,13.7,16.3
		c2,6.7,1,13.5-2.6,18.6C206.3,318.9,189.3,327.5,169.2,327.5z M144,309.2c1.8,1.2,4.9,2.7,8.3,3.6c16.6,4.1,39.7,4.4,55.7-17.8
		c1.9-2.7,1.3-6.1,0.8-7.8c-1.1-3.8-3.7-7.1-6.5-8.2c-3.6-1.5-5.4-2.2-9.4,2.3l0,0c-2.7,3.1-4.7,5.6-6.5,7.8
		c-7.6,9.6-11.1,12.9-33.6,17.6C148.2,307.5,145.6,308.5,144,309.2z"/>
	<path class="st1" d="M187.4,283.1c-3,0-5.7-2.2-6.1-5.3c-0.1-0.8-0.2-1.7-0.3-2.5c-14.7-0.4-28.8-6.7-39.6-18
		c-13.7-14.3-19.9-34.1-17-54.2c3.1-21.9,1.9-41.2,1.3-51.5c-0.2-2.7-0.3-4.7-0.3-6.1c0-1.9,0-7,16.4-15.3c5.7-2.9,17.3-8,29.9-9.4
		c21.3-2.3,35.3,7.1,39.5,26.5c11.2,51.5,0.9,74.3-6.6,91c-1.4,3.1-2.7,6-3.7,8.8l-0.9,2.5c-3.9,10.5-7.3,19.6-6.2,26.2
		c0.5,3.4-1.8,6.6-5.2,7.1C188.1,283.1,187.7,283.1,187.4,283.1z M137.9,147.2c0,1,0.1,2.2,0.2,3.6c0.6,10,1.9,30.9-1.4,54
		c-2.3,16.4,2.7,32.4,13.7,43.9c8.7,9.1,20.1,14.1,31.9,14.1c1.3-5.5,3.5-11.3,5.8-17.6l0.9-2.5c1.2-3.2,2.6-6.3,4.1-9.6
		c7.2-15.9,16.1-35.8,5.8-83.2c-2-9.2-6.8-14.5-14.6-16.3C167.1,129.7,143.1,142.6,137.9,147.2z"/>
	<g>
		<path class="st1" d="M172.2,144.4c-0.3,2,3.7,7.5,9,8.2c5.2,0.7,9.7-3.5,10-5.6c0.3-2-3.7-4.3-9-5
			C176.9,141.3,172.4,142.4,172.2,144.4L172.2,144.4z"/>
		<path class="st1" d="M182.4,154.8c-0.5,0-0.9,0-1.4-0.1c-3.3-0.4-6.6-2.5-8.9-5.5c-0.8-1.1-2.1-3.1-1.9-5c0.1-0.7,0.4-1.7,1.5-2.6
			c2-1.6,6.2-2.2,10.8-1.6c4.5,0.6,8.4,2.3,9.9,4.4c0.9,1.2,0.9,2.3,0.8,3C192.8,150.6,187.9,154.8,182.4,154.8z M174.3,144.8
			c0.3,1.4,3.3,5.2,7.2,5.8c4,0.5,7.2-2.6,7.6-3.7c-0.5-0.7-2.9-2.2-7.2-2.8C177.7,143.5,175,144.3,174.3,144.8z"/>
	</g>
	<g>
		<path class="st1" d="M331.6,140.2c0.3,2-3.7,7.5-9,8.2c-5.2,0.7-9.7-3.5-10-5.6c-0.3-2,3.7-4.3,9-5
			C326.9,137.1,331.3,138.2,331.6,140.2L331.6,140.2z"/>
		<path class="st1" d="M321.4,149.6c-5.2,0-9.5-4.1-9.8-6.6c-0.1-0.5,0-1.3,0.6-2.2c1.4-1.9,5-3.4,9.2-4c5.2-0.7,10.7,0.2,11.2,3.3
			v0c0.2,1.5-1.1,3.5-1.6,4.2c-2.1,2.8-5.2,4.7-8.2,5.1C322.3,149.5,321.9,149.6,321.4,149.6z M324.7,138.7c-0.9,0-1.9,0.1-3,0.2
			c-4.2,0.6-7,2-7.9,3.2c-0.1,0.2-0.3,0.4-0.3,0.6c0.2,1.5,4.1,5.4,8.8,4.7c2.9-0.4,5.5-2.5,6.9-4.3c1-1.3,1.3-2.4,1.3-2.7l0,0
			C330.5,139.7,328.4,138.7,324.7,138.7z"/>
	</g>
	<path class="st1" d="M339.1,257.7c-1.2,0-2.4-0.3-3.5-1.1c-2.9-1.9-3.6-5.8-1.7-8.6c12.2-18.1,9.9-36.8,7.8-54.8
		c-0.9-7.7-1.9-15.7-1.6-23.3c0.3-7.8,1.3-14.2,2.2-20.5c1.2-7.5,2.2-14.5,1.8-22.9c-0.2-3.4,2.4-6.4,5.9-6.6
		c3.4-0.2,6.4,2.4,6.6,5.9c0.5,9.7-0.7,17.7-1.9,25.5c-0.9,5.9-1.8,11.9-2.1,19c-0.2,6.7,0.6,13.9,1.6,21.4
		c2.3,19.3,5,41.2-9.8,63.2C343.1,256.7,341.1,257.7,339.1,257.7z"/>
</g>
</svg>
