<?xml version="1.0" encoding="utf-8"?>
<!-- Generator: Adobe Illustrator 21.1.0, SVG Export Plug-In . SVG Version: 6.00 Build 0)  -->
<svg version="1.1" id="Calque_1" xmlns="http://www.w3.org/2000/svg" xmlns:xlink="http://www.w3.org/1999/xlink" x="0px" y="0px"
	 viewBox="0 0 2194 1953.8" style="enable-background:new 0 0 2194 1953.8;" xml:space="preserve">
<style type="text/css">
	.st0{fill:url(#SVGID_1_);}
	.st1{fill:url(#SVGID_2_);}
</style>
<g>
	
		<linearGradient id="SVGID_1_" gradientUnits="userSpaceOnUse" x1="22.0634" y1="2102.8242" x2="2206.0635" y2="-185.1759" gradientTransform="matrix(1 0 0 -1 0 1953.8)">
		<stop  offset="0" style="stop-color:#69F8FF"/>
		<stop  offset="1" style="stop-color:#22A6FF"/>
	</linearGradient>
	<path class="st0" d="M2194,977.1c0-145.3-182-283.1-461.1-368.5c64.4-284.4,35.8-510.7-90.3-583.2c-29.1-17-63.1-25-100.2-25v99.7
		c20.6,0,37.1,4,51,11.6c60.8,34.9,87.2,167.7,66.6,338.5c-4.9,42-13,86.3-22.8,131.5c-87.7-21.5-183.4-38-284-48.7
		c-60.4-82.7-123-157.9-186-223.6C1313,173.9,1449.8,99.7,1542.9,99.7V0c-123,0-284,87.7-446.8,239.7
		C933.3,88.5,772.3,1.8,649.3,1.8v99.7c92.6,0,229.9,73.8,375.7,208.4c-62.6,65.7-125.2,140.4-184.7,223.2
		c-101.1,10.7-196.8,27.3-284.4,49.2c-10.3-44.7-17.9-88.1-23.3-129.7c-21-170.8,4.9-303.7,65.3-339c13.4-8,30.9-11.6,51.4-11.6V2.3
		c-37.6,0-71.6,8-101.1,25c-125.7,72.4-153.8,298.3-89,581.8C181.1,694.9,0,832.2,0,977.1c0,145.3,182,283.1,461.1,368.5
		c-64.4,284.4-35.8,510.7,90.3,583.2c29.1,17,63.1,25,100.6,25c123,0,284-87.7,446.8-239.7c162.8,151.2,323.8,237.9,446.8,237.9
		c37.6,0,71.6-8,101.1-25c125.7-72.4,153.8-298.3,89-581.8C2012.9,1259.8,2194,1122,2194,977.1L2194,977.1z M1611.7,678.8
		c-16.5,57.7-37.1,117.2-60.4,176.6c-18.3-35.8-37.6-71.6-58.6-107.3c-20.6-35.8-42.5-70.7-64.4-104.6
		C1491.9,652.9,1553.2,664.5,1611.7,678.8L1611.7,678.8z M1406.9,1155.1c-34.9,60.4-70.7,117.6-107.8,170.8
		c-66.6,5.8-134.2,8.9-202.1,8.9c-67.5,0-135.1-3.1-201.2-8.5c-37.1-53.2-73.3-110-108.2-169.9c-34-58.6-64.8-118.1-93-178
		c27.7-59.9,59-119.9,92.6-178.4c34.9-60.4,70.7-117.6,107.8-170.8c66.6-5.8,134.2-8.9,202.1-8.9c67.5,0,135.1,3.1,201.2,8.5
		c37.1,53.2,73.3,110,108.2,169.9c34,58.6,64.8,118.1,93,178C1471.3,1036.6,1440.5,1096.5,1406.9,1155.1L1406.9,1155.1z
		 M1551.4,1097c24.1,59.9,44.7,119.9,61.7,178c-58.6,14.3-120.3,26.4-184.2,35.8c21.9-34.4,43.8-69.8,64.4-106
		C1513.8,1169,1533,1132.8,1551.4,1097L1551.4,1097z M1097.9,1574.1c-41.6-42.9-83.2-90.8-124.3-143.1c40.2,1.8,81.4,3.1,123,3.1
		c42,0,83.6-0.9,124.3-3.1C1180.6,1483.4,1139,1531.2,1097.9,1574.1z M765.2,1310.7c-63.5-9.4-124.8-21-183.4-35.3
		c16.5-57.7,37.1-117.2,60.4-176.6c18.3,35.8,37.6,71.6,58.6,107.3S743.3,1276.8,765.2,1310.7z M1095.7,380.1
		c41.6,42.9,83.2,90.8,124.3,143.1c-40.2-1.8-81.4-3.1-123-3.1c-42,0-83.6,0.9-124.3,3.1C1012.9,470.9,1054.5,423,1095.7,380.1z
		 M764.7,643.5c-21.9,34.4-43.8,69.8-64.4,106c-20.6,35.8-39.8,71.6-58.1,107.3c-24.1-59.9-44.7-119.9-61.7-178
		C639.1,665,700.8,652.9,764.7,643.5L764.7,643.5z M360,1203.4c-158.3-67.5-260.7-156.1-260.7-226.3S201.7,817.9,360,750.8
		c38.5-16.5,80.5-31.3,123.9-45.2c25.5,87.7,59,178.9,100.6,272.3c-41.1,93-74.2,183.8-99.3,271C440.9,1235.2,398.9,1220,360,1203.4
		L360,1203.4z M600.6,1842.5c-60.8-34.9-87.2-167.7-66.6-338.5c4.9-42,13-86.3,22.8-131.5c87.7,21.5,183.4,38,284,48.7
		c60.4,82.7,123,157.9,186,223.6c-145.8,135.5-282.6,209.7-375.7,209.7C631,1854.1,614,1850.1,600.6,1842.5L600.6,1842.5z
		 M1661.4,1501.7c21,170.8-4.9,303.7-65.3,339c-13.4,8-30.9,11.6-51.4,11.6c-92.6,0-229.9-73.8-375.7-208.4
		c62.6-65.7,125.2-140.4,184.7-223.2c101.1-10.7,196.8-27.3,284.4-49.2C1648.4,1416.7,1656.5,1460.1,1661.4,1501.7z M1833.6,1203.4
		c-38.5,16.5-80.5,31.3-123.9,45.2c-25.5-87.7-59-178.9-100.6-272.3c41.1-93,74.2-183.8,99.3-271c44.3,13.9,86.3,29.1,125.7,45.6
		c158.3,67.5,260.7,156.1,260.7,226.3C2094.3,1047.3,1991.9,1136.3,1833.6,1203.4L1833.6,1203.4z"/>
	
		<linearGradient id="SVGID_2_" gradientUnits="userSpaceOnUse" x1="21.854" y1="2102.6243" x2="2205.8542" y2="-185.3757" gradientTransform="matrix(1 0 0 -1 0 1953.8)">
		<stop  offset="0" style="stop-color:#69F8FF"/>
		<stop  offset="1" style="stop-color:#22A6FF"/>
	</linearGradient>
	<circle class="st1" cx="1096.6" cy="977.1" r="204.4"/>
</g>
</svg>
