<?xml version="1.0" encoding="utf-8"?>
<!-- Generator: Adobe Illustrator 21.1.0, SVG Export Plug-In . SVG Version: 6.00 Build 0)  -->
<svg version="1.1" id="Layer_1" xmlns="http://www.w3.org/2000/svg" xmlns:xlink="http://www.w3.org/1999/xlink" x="0px" y="0px"
	 viewBox="0 0 640 640" style="enable-background:new 0 0 640 640;" xml:space="preserve">
<style type="text/css">
	.st0{fill:url(#SVGID_1_);}
	.st1{fill:url(#SVGID_2_);}
	.st2{fill:url(#SVGID_3_);}
	.st3{fill:url(#SVGID_4_);}
	.st4{fill:url(#SVGID_5_);}
	.st5{fill:url(#SVGID_6_);}
	.st6{fill:url(#SVGID_7_);}
	.st7{fill:url(#SVGID_8_);}
	.st8{fill:url(#SVGID_9_);}
	.st9{fill:url(#SVGID_10_);}
	.st10{fill:url(#SVGID_11_);}
	.st11{fill:url(#SVGID_12_);}
	.st12{fill:url(#SVGID_13_);}
	.st13{fill:url(#SVGID_14_);}
	.st14{fill:url(#SVGID_15_);}
	.st15{fill:url(#SVGID_16_);}
	.st16{fill:url(#SVGID_17_);}
	.st17{fill:url(#SVGID_18_);}
</style>
<g>
	<linearGradient id="SVGID_1_" gradientUnits="userSpaceOnUse" x1="62.3845" y1="70.7598" x2="448.3845" y2="359.7598">
		<stop  offset="0" style="stop-color:#FFFFFF"/>
		<stop  offset="1" style="stop-color:#EEEDF7"/>
	</linearGradient>
	<polygon class="st0" points="40.9,150.5 152.3,42.3 3.1,0 	"/>
	<linearGradient id="SVGID_2_" gradientUnits="userSpaceOnUse" x1="98.5658" y1="22.4346" x2="484.5658" y2="311.4346">
		<stop  offset="0" style="stop-color:#FFFFFF"/>
		<stop  offset="1" style="stop-color:#EEEDF7"/>
	</linearGradient>
	<polygon class="st1" points="202.7,196.3 314.3,88.1 164.9,45.8 	"/>
	<linearGradient id="SVGID_3_" gradientUnits="userSpaceOnUse" x1="61.67" y1="71.7141" x2="447.67" y2="360.7141">
		<stop  offset="0" style="stop-color:#FFFFFF"/>
		<stop  offset="1" style="stop-color:#EEEDF7"/>
	</linearGradient>
	<polygon class="st2" points="46.2,156 195.4,198.2 157.6,47.7 	"/>
	<linearGradient id="SVGID_4_" gradientUnits="userSpaceOnUse" x1="97.8221" y1="23.4279" x2="483.8221" y2="312.4279">
		<stop  offset="0" style="stop-color:#FFFFFF"/>
		<stop  offset="1" style="stop-color:#EEEDF7"/>
	</linearGradient>
	<polygon class="st3" points="207.9,201.8 357.3,244 319.5,93.5 	"/>
	<linearGradient id="SVGID_5_" gradientUnits="userSpaceOnUse" x1="-1.1874" y1="155.669" x2="384.8126" y2="444.669">
		<stop  offset="0" style="stop-color:#FFFFFF"/>
		<stop  offset="1" style="stop-color:#EEEDF7"/>
	</linearGradient>
	<polygon class="st4" points="193.3,205.5 44.1,163.2 81.9,313.6 	"/>
	<linearGradient id="SVGID_6_" gradientUnits="userSpaceOnUse" x1="34.9949" y1="107.3425" x2="420.9949" y2="396.3425">
		<stop  offset="0" style="stop-color:#FFFFFF"/>
		<stop  offset="1" style="stop-color:#EEEDF7"/>
	</linearGradient>
	<polygon class="st5" points="355.2,251.2 205.9,209.1 243.7,359.5 	"/>
	<linearGradient id="SVGID_7_" gradientUnits="userSpaceOnUse" x1="134.7253" y1="-25.8615" x2="520.7253" y2="263.1385">
		<stop  offset="0" style="stop-color:#FFFFFF"/>
		<stop  offset="1" style="stop-color:#EEEDF7"/>
	</linearGradient>
	<polygon class="st6" points="476.1,133.9 326.9,91.7 364.7,242.1 	"/>
	<linearGradient id="SVGID_8_" gradientUnits="userSpaceOnUse" x1="-1.8995" y1="156.6201" x2="384.1005" y2="445.6201">
		<stop  offset="0" style="stop-color:#FFFFFF"/>
		<stop  offset="1" style="stop-color:#EEEDF7"/>
	</linearGradient>
	<polygon class="st7" points="87.1,319.1 236.4,361.3 198.6,210.9 	"/>
	<linearGradient id="SVGID_9_" gradientUnits="userSpaceOnUse" x1="-64.7321" y1="240.5418" x2="321.2679" y2="529.5418">
		<stop  offset="0" style="stop-color:#FFFFFF"/>
		<stop  offset="1" style="stop-color:#EEEDF7"/>
	</linearGradient>
	<polygon class="st8" points="234.3,368.6 85.1,326.4 122.8,476.8 	"/>
	<linearGradient id="SVGID_10_" gradientUnits="userSpaceOnUse" x1="134.0133" y1="-24.9105" x2="520.0133" y2="264.0895">
		<stop  offset="0" style="stop-color:#FFFFFF"/>
		<stop  offset="1" style="stop-color:#EEEDF7"/>
	</linearGradient>
	<polygon class="st9" points="481.4,139.4 369.9,247.5 519.2,289.8 	"/>
	<linearGradient id="SVGID_11_" gradientUnits="userSpaceOnUse" x1="71.1371" y1="59.0694" x2="457.1371" y2="348.0694">
		<stop  offset="0" style="stop-color:#FFFFFF"/>
		<stop  offset="1" style="stop-color:#EEEDF7"/>
	</linearGradient>
	<polygon class="st10" points="517.1,297.1 367.8,254.8 405.5,405.3 	"/>
	<linearGradient id="SVGID_12_" gradientUnits="userSpaceOnUse" x1="148.1613" y1="-43.8071" x2="534.1613" y2="245.1929">
		<stop  offset="0" style="stop-color:#FFFFFF"/>
		<stop  offset="1" style="stop-color:#EEEDF7"/>
	</linearGradient>
	<polygon class="st11" points="321.6,86.2 321.6,86.2 321.7,85.9 321.7,85.9 	"/>
	<linearGradient id="SVGID_13_" gradientUnits="userSpaceOnUse" x1="170.8639" y1="-74.1296" x2="556.8639" y2="214.8704">
		<stop  offset="0" style="stop-color:#FFFFFF"/>
		<stop  offset="1" style="stop-color:#EEEDF7"/>
	</linearGradient>
	<polygon class="st12" points="637.9,179.8 488.7,137.5 526.5,287.9 	"/>
	<linearGradient id="SVGID_14_" gradientUnits="userSpaceOnUse" x1="12.0848" y1="137.9422" x2="398.0847" y2="426.9422">
		<stop  offset="0" style="stop-color:#FFFFFF"/>
		<stop  offset="1" style="stop-color:#EEEDF7"/>
	</linearGradient>
	<polygon class="st13" points="38.5,157.9 38.5,157.9 38.8,157.8 	"/>
	<linearGradient id="SVGID_15_" gradientUnits="userSpaceOnUse" x1="34.2824" y1="108.2941" x2="420.2824" y2="397.2941">
		<stop  offset="0" style="stop-color:#FFFFFF"/>
		<stop  offset="1" style="stop-color:#EEEDF7"/>
	</linearGradient>
	<polygon class="st14" points="360.5,256.7 249,364.9 398.2,407.2 	"/>
	<linearGradient id="SVGID_16_" gradientUnits="userSpaceOnUse" x1="-65.4445" y1="241.4933" x2="320.5555" y2="530.4933">
		<stop  offset="0" style="stop-color:#FFFFFF"/>
		<stop  offset="1" style="stop-color:#EEEDF7"/>
	</linearGradient>
	<polygon class="st15" points="239.6,374.1 128.1,482.2 277.3,524.5 	"/>
	<linearGradient id="SVGID_17_" gradientUnits="userSpaceOnUse" x1="-128.301" y1="325.4471" x2="257.699" y2="614.447">
		<stop  offset="0" style="stop-color:#FFFFFF"/>
		<stop  offset="1" style="stop-color:#EEEDF7"/>
	</linearGradient>
	<polygon class="st16" points="163.8,640 275.3,531.7 126,489.5 	"/>
	<linearGradient id="SVGID_18_" gradientUnits="userSpaceOnUse" x1="-28.5931" y1="192.2732" x2="357.4069" y2="481.2732">
		<stop  offset="0" style="stop-color:#FFFFFF"/>
		<stop  offset="1" style="stop-color:#EEEDF7"/>
	</linearGradient>
	<polygon class="st17" points="396.1,414.5 246.9,372.2 284.7,522.6 	"/>
</g>
</svg>
